<svg version="1.1" xmlns="http://www.w3.org/2000/svg" 
xmlns:xlink="http://www.w3.org/1999/xlink" width="700" 
height="700" viewBox="610,111.5,700,700"><g id="document" fill="#ffffff" 
fill-rule="nonzero" stroke="#000000" stroke-width="0" stroke-linecap="butt" 
stroke-linejoin="miter" stroke-miterlimit="10" stroke-dasharray="" 
stroke-dashoffset="0" font-family="none" font-weight="none" 
font-size="none" text-anchor="none" style="mix-blend-mode: normal">
<rect x="610" y="79.64286" transform="scale(1,1.4)" width="700" height="500" id="Shape 1 1" vector-effect="non-scaling-stroke"/></g><g fill-opacity="0" fill="#000000" fill-rule="nonzero" stroke="#000000" stroke-width="1" stroke-linecap="round" stroke-linejoin="round" stroke-miterlimit="10" stroke-dasharray="" stroke-dashoffset="0" font-family="none" font-weight="none" font-size="none" text-anchor="none" style="mix-blend-mode: normal"><g id="stage"><g id="layer1 1">
<path d="M777,283c21.92513,-15.68161 45.92265,-25.70786 71.14016,-34.77281c19.6615,-7.06773 39.30826,-13.62125 60.07893,-16.61382c35.95293,-5.17998 73.55079,-4.40139 109.79512,-4.34664c20.67052,0.03123 41.36537,0.33222 62.0173,1.24137c4.92619,0.21686 16.95512,-0.84018 20.41403,3.41122c2.21424,2.72156 -0.53057,6.63322 -1.95921,8.62523c-3.08168,4.29691 -8.53318,7.02214 -13.38558,8.78648c-20.41645,7.42349 -44.64867,7.17946 -66.16446,8.53041c-17.3591,1.03528 -34.76744,1.35869 -52.10464,2.73392c-19.03068,1.50957 -37.91942,4.25607 -56.92606,5.96445c-23.04548,2.0714 -46.17591,3.03936 -68.57139,9.35768c-11.40378,3.21729 -21.64147,11.06757 -33.17774,13.37374c-6.45449,1.29029 -14.90566,-0.54089 -17.94369,7.00042c-3.92108,9.7333 1.77779,20.44366 6.76364,28.57521c13.72764,22.3887 30.49081,44.1737 46.42091,65.03985c16.59016,20.93664 36.11085,41.01268 57.14559,57.47293c14.65325,11.46657 30.6604,21.05472 45.7554,31.90883c29.31531,21.07928 58.61016,43.62746 93.87452,53.69945c25.3051,7.22749 51.85933,13.39263 78.10575,15.87372c5.97374,0.5647 12.03813,0.43991 17.84872,-1.1789c2.12729,-0.59266 5.0846,-0.40637 6.2106,-2.30603c0.69629,-1.17469 -0.20614,-3.77626 -0.53982,-4.99806c-4.79016,-9.6973 -15.20274,-14.77984 -23.2274,-21.47376c-10.67631,-8.90584 -18.94837,-20.1585 -24.63566,-32.81487c-16.03553,-35.68506 -8.81944,-78.25821 -8.24741,-116.092c0.41444,-27.41095 -4.56432,-55.29707 -1.86394,-82.60866c1.24135,-12.55499 4.92749,-24.39017 9.44513,-36.11683" id="Path 1"/></g></g></g></svg>